<svg xmlns="http://www.w3.org/2000/svg" viewBox="0 0 940 300" width="940" height="300" font-family="ui-monospace, SFMono-Regular, 'SF Mono', Menlo, Consolas, monospace" role="img" aria-label="Sourav Kundu — DevOps, SRE and Platform Engineer">
<defs><linearGradient id="bg" x1="0" y1="0" x2="0" y2="1"><stop offset="0" stop-color="#0b0f18"/><stop offset="0.55" stop-color="#080b12"/><stop offset="1" stop-color="#05070c"/></linearGradient><radialGradient id="glow" cx="0.5" cy="0.5" r="0.5"><stop offset="0" stop-color="#ffb454" stop-opacity="0.18"/><stop offset="1" stop-color="#ffb454" stop-opacity="0"/></radialGradient><linearGradient id="sweep" x1="0" y1="0" x2="1" y2="0"><stop offset="0" stop-color="#ffb454" stop-opacity="0"/><stop offset="0.5" stop-color="#ffb454" stop-opacity="0.09"/><stop offset="1" stop-color="#ffb454" stop-opacity="0"/></linearGradient><linearGradient id="spark" x1="0" y1="0" x2="0" y2="1"><stop offset="0" stop-color="#ffb454" stop-opacity="0.3"/><stop offset="1" stop-color="#ffb454" stop-opacity="0"/></linearGradient></defs>
<rect width="940" height="300" rx="16" fill="url(#bg)"/>
<path d="M0 0V300M40 0V300M80 0V300M120 0V300M160 0V300M200 0V300M240 0V300M280 0V300M320 0V300M360 0V300M400 0V300M440 0V300M480 0V300M520 0V300M560 0V300M600 0V300M640 0V300M680 0V300M720 0V300M760 0V300M800 0V300M840 0V300M880 0V300M920 0V300M0 0H940M0 40H940M0 80H940M0 120H940M0 160H940M0 200H940M0 240H940M0 280H940" stroke="#1a2233" stroke-width="1" opacity="0.35"/>
<ellipse cx="230" cy="130" rx="440" ry="260" fill="url(#glow)"/>
<rect width="940" height="300" rx="16" fill="none" stroke="#1a2233" stroke-width="1.5"/>
<rect x="-160" y="0" width="160" height="300" fill="url(#sweep)"><animateTransform attributeName="transform" type="translate" from="-160 0" to="940 0" dur="7s" repeatCount="indefinite"/></rect>
<circle cx="52" cy="48" r="5" fill="#46d39a"><animate attributeName="opacity" values="1;0.35;1" dur="1.9s" repeatCount="indefinite"/></circle>
<circle cx="52" cy="48" r="5" fill="none" stroke="#46d39a" stroke-width="1.5"><animate attributeName="r" values="5;12;5" dur="1.9s" repeatCount="indefinite"/><animate attributeName="opacity" values="0.6;0;0.6" dur="1.9s" repeatCount="indefinite"/></circle>
<text x="68" y="53" font-size="14" letter-spacing="1" fill="#8792a8">sourav.service &#183; <tspan fill="#46d39a">active (running)</tspan><tspan fill="#8792a8">  &#183;  uptime 5y+  &#183;  on call</tspan></text>
<text x="44" y="136" font-size="56" font-weight="700" letter-spacing="5" fill="#eef2fb">SOURAV KUNDU</text>
<text x="46" y="174" font-size="18.5" letter-spacing="1.5" fill="#ffb454">DevOps &#183; SRE &#183; Platform &amp; Infrastructure Engineer</text>
<text x="46" y="222" font-size="15.5" fill="#8792a8">~ $ <tspan fill="#eef2fb">whoami</tspan> <tspan fill="#8792a8">&#8594;</tspan> <tspan fill="#eef2fb">keeps production boring</tspan><tspan fill="#ffb454"> &#9646;<animate attributeName="fill-opacity" values="1;1;0;0" keyTimes="0;0.5;0.5;1" dur="1.06s" repeatCount="indefinite"/></tspan></text>
<text x="896" y="52" font-size="12.5" letter-spacing="2" fill="#8792a8" text-anchor="end">LATENCY &#183; p95</text>
<line x1="628" y1="128" x2="896" y2="128" stroke="#1a2233"/>
<path d="M628.0 91.7 L633.7 88.5 L639.4 86.4 L645.1 85.5 L650.8 85.7 L656.5 86.8 L662.2 88.4 L667.9 90.1 L673.6 91.7 L679.3 92.7 L685.0 93.0 L690.7 92.4 L696.4 91.0 L702.1 88.9 L707.8 86.5 L713.5 84.1 L719.2 82.1 L724.9 80.9 L730.6 80.7 L736.3 81.8 L742.0 84.0 L747.7 87.3 L753.4 91.3 L759.1 95.6 L764.9 99.5 L770.6 102.6 L776.3 104.4 L782.0 104.8 L787.7 103.8 L793.4 101.9 L799.1 99.6 L804.8 97.4 L810.5 95.9 L816.2 95.2 L821.9 95.5 L827.6 96.6 L833.3 98.3 L839.0 100.5 L844.7 102.9 L850.4 105.5 L856.1 108.0 L861.8 110.3 L867.5 112.0 L873.2 112.9 L878.9 112.8 L884.6 111.4 L890.3 108.9 L896.0 105.3 L896 128 L628 128 Z" fill="url(#spark)"/>
<path d="M628.0 91.7 L633.7 88.5 L639.4 86.4 L645.1 85.5 L650.8 85.7 L656.5 86.8 L662.2 88.4 L667.9 90.1 L673.6 91.7 L679.3 92.7 L685.0 93.0 L690.7 92.4 L696.4 91.0 L702.1 88.9 L707.8 86.5 L713.5 84.1 L719.2 82.1 L724.9 80.9 L730.6 80.7 L736.3 81.8 L742.0 84.0 L747.7 87.3 L753.4 91.3 L759.1 95.6 L764.9 99.5 L770.6 102.6 L776.3 104.4 L782.0 104.8 L787.7 103.8 L793.4 101.9 L799.1 99.6 L804.8 97.4 L810.5 95.9 L816.2 95.2 L821.9 95.5 L827.6 96.6 L833.3 98.3 L839.0 100.5 L844.7 102.9 L850.4 105.5 L856.1 108.0 L861.8 110.3 L867.5 112.0 L873.2 112.9 L878.9 112.8 L884.6 111.4 L890.3 108.9 L896.0 105.3" fill="none" stroke="#ffb454" stroke-width="2" stroke-linecap="round" stroke-linejoin="round" stroke-dasharray="285" stroke-dashoffset="285"><animate attributeName="stroke-dashoffset" values="285;0;0" keyTimes="0;0.72;1" dur="4.8s" repeatCount="indefinite"/></path>
<text x="628" y="162" font-size="12.5" letter-spacing="2" fill="#8792a8">UPTIME &#183; 90 DAYS</text>
<rect x="628" y="172" width="7" height="20" rx="1.5" fill="#46d39a" opacity="0.28"><animate attributeName="opacity" values="0.24;0.9;0.24" dur="2.6s" begin="0.00s" repeatCount="indefinite"/></rect>
<rect x="638" y="172" width="7" height="20" rx="1.5" fill="#46d39a" opacity="0.28"><animate attributeName="opacity" values="0.24;0.9;0.24" dur="2.6s" begin="0.05s" repeatCount="indefinite"/></rect>
<rect x="648" y="172" width="7" height="20" rx="1.5" fill="#46d39a" opacity="0.28"><animate attributeName="opacity" values="0.24;0.9;0.24" dur="2.6s" begin="0.10s" repeatCount="indefinite"/></rect>
<rect x="658" y="172" width="7" height="20" rx="1.5" fill="#46d39a" opacity="0.28"><animate attributeName="opacity" values="0.24;0.9;0.24" dur="2.6s" begin="0.15s" repeatCount="indefinite"/></rect>
<rect x="668" y="172" width="7" height="20" rx="1.5" fill="#46d39a" opacity="0.28"><animate attributeName="opacity" values="0.24;0.9;0.24" dur="2.6s" begin="0.20s" repeatCount="indefinite"/></rect>
<rect x="678" y="172" width="7" height="20" rx="1.5" fill="#46d39a" opacity="0.28"><animate attributeName="opacity" values="0.24;0.9;0.24" dur="2.6s" begin="0.25s" repeatCount="indefinite"/></rect>
<rect x="688" y="172" width="7" height="20" rx="1.5" fill="#46d39a" opacity="0.28"><animate attributeName="opacity" values="0.24;0.9;0.24" dur="2.6s" begin="0.30s" repeatCount="indefinite"/></rect>
<rect x="698" y="172" width="7" height="20" rx="1.5" fill="#46d39a" opacity="0.28"><animate attributeName="opacity" values="0.24;0.9;0.24" dur="2.6s" begin="0.35s" repeatCount="indefinite"/></rect>
<rect x="708" y="172" width="7" height="20" rx="1.5" fill="#46d39a" opacity="0.28"><animate attributeName="opacity" values="0.24;0.9;0.24" dur="2.6s" begin="0.40s" repeatCount="indefinite"/></rect>
<rect x="718" y="172" width="7" height="20" rx="1.5" fill="#46d39a" opacity="0.28"><animate attributeName="opacity" values="0.24;0.9;0.24" dur="2.6s" begin="0.45s" repeatCount="indefinite"/></rect>
<rect x="728" y="172" width="7" height="20" rx="1.5" fill="#46d39a" opacity="0.28"><animate attributeName="opacity" values="0.24;0.9;0.24" dur="2.6s" begin="0.50s" repeatCount="indefinite"/></rect>
<rect x="738" y="172" width="7" height="20" rx="1.5" fill="#46d39a" opacity="0.28"><animate attributeName="opacity" values="0.24;0.9;0.24" dur="2.6s" begin="0.55s" repeatCount="indefinite"/></rect>
<rect x="748" y="172" width="7" height="20" rx="1.5" fill="#46d39a" opacity="0.28"><animate attributeName="opacity" values="0.24;0.9;0.24" dur="2.6s" begin="0.60s" repeatCount="indefinite"/></rect>
<rect x="758" y="172" width="7" height="20" rx="1.5" fill="#46d39a" opacity="0.28"><animate attributeName="opacity" values="0.24;0.9;0.24" dur="2.6s" begin="0.65s" repeatCount="indefinite"/></rect>
<rect x="768" y="172" width="7" height="20" rx="1.5" fill="#46d39a" opacity="0.28"><animate attributeName="opacity" values="0.24;0.9;0.24" dur="2.6s" begin="0.70s" repeatCount="indefinite"/></rect>
<rect x="778" y="172" width="7" height="20" rx="1.5" fill="#46d39a" opacity="0.28"><animate attributeName="opacity" values="0.24;0.9;0.24" dur="2.6s" begin="0.75s" repeatCount="indefinite"/></rect>
<rect x="788" y="172" width="7" height="20" rx="1.5" fill="#ffb454" opacity="0.28"><animate attributeName="opacity" values="0.24;0.9;0.24" dur="2.6s" begin="0.80s" repeatCount="indefinite"/></rect>
<rect x="798" y="172" width="7" height="20" rx="1.5" fill="#46d39a" opacity="0.28"><animate attributeName="opacity" values="0.24;0.9;0.24" dur="2.6s" begin="0.85s" repeatCount="indefinite"/></rect>
<rect x="808" y="172" width="7" height="20" rx="1.5" fill="#46d39a" opacity="0.28"><animate attributeName="opacity" values="0.24;0.9;0.24" dur="2.6s" begin="0.90s" repeatCount="indefinite"/></rect>
<rect x="818" y="172" width="7" height="20" rx="1.5" fill="#46d39a" opacity="0.28"><animate attributeName="opacity" values="0.24;0.9;0.24" dur="2.6s" begin="0.95s" repeatCount="indefinite"/></rect>
<rect x="828" y="172" width="7" height="20" rx="1.5" fill="#46d39a" opacity="0.28"><animate attributeName="opacity" values="0.24;0.9;0.24" dur="2.6s" begin="1.00s" repeatCount="indefinite"/></rect>
<rect x="838" y="172" width="7" height="20" rx="1.5" fill="#46d39a" opacity="0.28"><animate attributeName="opacity" values="0.24;0.9;0.24" dur="2.6s" begin="1.05s" repeatCount="indefinite"/></rect>
<rect x="848" y="172" width="7" height="20" rx="1.5" fill="#46d39a" opacity="0.28"><animate attributeName="opacity" values="0.24;0.9;0.24" dur="2.6s" begin="1.10s" repeatCount="indefinite"/></rect>
<rect x="858" y="172" width="7" height="20" rx="1.5" fill="#46d39a" opacity="0.28"><animate attributeName="opacity" values="0.24;0.9;0.24" dur="2.6s" begin="1.15s" repeatCount="indefinite"/></rect>
<rect x="868" y="172" width="7" height="20" rx="1.5" fill="#46d39a" opacity="0.28"><animate attributeName="opacity" values="0.24;0.9;0.24" dur="2.6s" begin="1.20s" repeatCount="indefinite"/></rect>
<rect x="878" y="172" width="7" height="20" rx="1.5" fill="#46d39a" opacity="0.28"><animate attributeName="opacity" values="0.24;0.9;0.24" dur="2.6s" begin="1.25s" repeatCount="indefinite"/></rect>
<rect x="888" y="172" width="7" height="20" rx="1.5" fill="#46d39a" opacity="0.28"><animate attributeName="opacity" values="0.24;0.9;0.24" dur="2.6s" begin="1.30s" repeatCount="indefinite"/></rect>
<line x1="44" y1="248" x2="896" y2="248" stroke="#1a2233"/>
<text x="44" y="272" font-size="11.5" letter-spacing="2" fill="#8792a8">REGIONS</text>
<text x="44" y="290" font-size="14" fill="#eef2fb">AP &#183; EU</text>
<text x="269" y="272" font-size="11.5" letter-spacing="2" fill="#8792a8">STACK</text>
<text x="269" y="290" font-size="14" fill="#eef2fb">Go &#183; Terraform &#183; k8s</text>
<text x="494" y="272" font-size="11.5" letter-spacing="2" fill="#8792a8">EDGE</text>
<text x="494" y="290" font-size="14" fill="#eef2fb">Cloudflare</text>
<text x="719" y="272" font-size="11.5" letter-spacing="2" fill="#8792a8">BUILT</text>
<text x="719" y="290" font-size="14" fill="#eef2fb">when it doesn&#8217;t exist</text>
</svg>
